<?xml version="1.0" encoding="UTF-8"?>
<svg version="1.1" xmlns="http://www.w3.org/2000/svg" width="2000" height="1998">
<path d="M0 0 C1.17819305 -0.00335861 2.35638611 -0.00671722 3.57028198 -0.01017761 C6.79431733 -0.0180369 10.01831396 -0.02135475 13.24235773 -0.0219934 C15.26640119 -0.0227069 17.29043802 -0.02484713 19.31447983 -0.02749062 C26.40497002 -0.03674175 33.49544147 -0.04082676 40.5859375 -0.04003906 C47.14425735 -0.0394419 53.70249399 -0.04992275 60.26079285 -0.06578273 C65.92572695 -0.07898252 71.59063434 -0.08421765 77.25558364 -0.08358365 C80.62307274 -0.0833318 83.99043032 -0.08696315 87.35791397 -0.0967617 C102.47300096 -0.13658955 117.24622216 0.33294395 132.25341797 2.14526367 C134.27840557 2.3218608 136.30426307 2.48947293 138.33154297 2.63745117 C212.50744238 8.11484053 287.52180881 23.3473029 358.02783203 47.06567383 C361.29200923 48.15818 364.56416585 49.22298832 367.83935547 50.28198242 C394.52688657 58.95832084 420.60089312 68.94377663 446.27386475 80.27429199 C448.40256639 81.21088659 450.53397187 82.14110767 452.66601562 83.07006836 C469.16193339 90.25920807 485.56244562 97.42741092 501.33837891 106.11303711 C503.7806985 107.42947353 506.26391267 108.64780461 508.75878906 109.86083984 C541.34524294 125.71152419 572.58944173 144.80403893 602.60693359 165.03979492 C605.04112272 166.6741378 607.49301213 168.28156038 609.94091797 169.89526367 C623.67674151 179.06480401 637.13786879 188.62084298 650.27050781 198.63452148 C652.32975772 200.2034255 654.39481708 201.76446214 656.46044922 203.32495117 C665.62775143 210.27013024 674.61556888 217.40911829 683.50195312 224.7097168 C685.05317078 225.98113578 686.61174731 227.24356477 688.17138672 228.50463867 C700.07213842 238.13774345 711.51231877 248.26965802 722.70800781 258.70874023 C724.71731436 260.57647479 726.73907881 262.4303112 728.76318359 264.28198242 C730.26829701 265.65887516 731.77059963 267.03879404 733.27294922 268.41870117 C735.17687531 270.1652525 737.09143662 271.89675423 739.01513672 273.62182617 C746.9553926 280.80940092 754.54850109 288.33191567 762.12841797 295.89526367 C762.67452728 296.43878479 763.2206366 296.98230591 763.78329468 297.54229736 C769.23327253 302.97190931 774.61975579 308.41108868 779.62109375 314.26342773 C782.7154633 317.83079245 785.99997211 321.22353613 789.25341797 324.64526367 C794.383 330.04016892 799.39388293 335.50548157 804.25341797 341.14526367 C805.00099365 342.00958008 805.00099365 342.00958008 805.76367188 342.89135742 C816.56657497 355.40420366 827.11848082 368.08401583 837.25341797 381.14526367 C837.67091309 381.6826416 838.0884082 382.22001953 838.51855469 382.77368164 C841.44880925 386.5501184 844.35778521 390.34226838 847.25341797 394.14526367 C847.95120361 395.06130371 847.95120361 395.06130371 848.66308594 395.99584961 C856.43059079 406.21584096 863.92137759 416.6091413 871.25341797 427.14526367 C871.72134766 427.81557617 872.18927734 428.48588867 872.67138672 429.17651367 C879.766336 439.35190312 886.5780368 449.69062526 893.25341797 460.14526367 C893.7289209 460.88615234 894.20442383 461.62704102 894.69433594 462.39038086 C913.90567299 492.3402969 931.25199682 523.37376972 947.25341797 555.14526367 C947.71554687 556.06085052 947.71554687 556.06085052 948.18701172 556.99493408 C962.94647716 586.27258957 975.63893745 616.4910624 987.25341797 647.14526367 C987.53378906 647.87358398 987.81416016 648.6019043 988.10302734 649.35229492 C998.22083232 675.64416817 1006.67334582 702.59975342 1014.28417969 729.71166992 C1014.94287143 732.04513106 1015.61153515 734.37579549 1016.2890625 736.70385742 C1018.47542628 744.2235456 1020.41401751 751.75488284 1022.12841797 759.39526367 C1022.64247199 761.65964765 1023.15680318 763.92396872 1023.67138672 766.18823242 C1024.06076416 767.90792236 1024.06076416 767.90792236 1024.45800781 769.66235352 C1025.24642429 773.11464001 1026.05324461 776.56207914 1026.86669922 780.00854492 C1029.50252643 791.19885166 1031.97176814 802.34886728 1033.83642578 813.69262695 C1034.33203924 816.60769302 1034.86577029 819.51471222 1035.40185547 822.42260742 C1040.20600294 848.5489688 1043.77668054 874.69738288 1046.25341797 901.14526367 C1046.34864746 902.14380371 1046.44387695 903.14234375 1046.54199219 904.17114258 C1049.41241353 934.66612515 1050.64128045 965.18274497 1050.57107162 995.80300522 C1050.565813 998.25674446 1050.56391355 1000.71047091 1050.56240845 1003.16421509 C1050.54014932 1024.08388942 1050.21025884 1044.94567117 1048.94091797 1065.83276367 C1048.88215485 1066.81439484 1048.82339172 1067.796026 1048.7628479 1068.80740356 C1047.95614698 1081.79298035 1046.56253052 1094.6750932 1044.93579102 1107.58203125 C1044.32782376 1112.42972651 1043.82604412 1117.28047326 1043.37841797 1122.14526367 C1041.21147976 1143.92341921 1037.41459334 1165.67223022 1033.25341797 1187.14526367 C1033.10050293 1187.94013184 1032.94758789 1188.735 1032.79003906 1189.55395508 C1031.8338016 1194.50074211 1030.83971864 1199.43884813 1029.82177734 1204.37329102 C1029.42733332 1206.29705278 1029.03839615 1208.22194865 1028.65380859 1210.14770508 C1018.51249579 1260.84646808 1003.03947017 1310.99881523 984.25341797 1359.14526367 C983.76542725 1360.40040771 983.76542725 1360.40040771 983.26757812 1361.6809082 C980.98623086 1367.52592109 978.63392895 1373.34002656 976.25341797 1379.14526367 C975.6866333 1380.53793457 975.6866333 1380.53793457 975.10839844 1381.95874023 C964.49415431 1407.94489212 952.63838979 1433.52096815 939.27832031 1458.21264648 C937.94201837 1460.73245739 936.68903245 1463.28865034 935.43945312 1465.85229492 C922.39816486 1492.57435037 906.64541271 1518.34864617 890.25341797 1543.14526367 C889.60808105 1544.1275293 889.60808105 1544.1275293 888.94970703 1545.12963867 C875.1619846 1566.10305128 861.09091836 1587.30635695 845.19091797 1606.75073242 C842.92686481 1609.5488465 840.74683836 1612.40742897 838.56591797 1615.27026367 C830.5386225 1625.75880265 822.2905221 1636.06599026 813.35498047 1645.79760742 C811.10794144 1648.30777556 808.99109316 1650.89621657 806.87841797 1653.52026367 C802.71830284 1658.66222415 798.3120774 1663.51901428 793.81591797 1668.36401367 C791.70683907 1670.65313589 789.65363085 1672.97001531 787.62841797 1675.33276367 C784.48275313 1678.96758692 781.10882095 1682.33032048 777.65966797 1685.67651367 C775.7840933 1687.60080456 774.05115669 1689.53704134 772.31201172 1691.57885742 C767.35921323 1697.28421535 761.97808538 1702.56980928 756.62915039 1707.89990234 C754.81980864 1709.70388452 753.01587478 1711.51315032 751.21240234 1713.32299805 C745.89220265 1718.64594535 740.57213483 1723.8946503 734.83911133 1728.77783203 C732.69623173 1730.62575638 730.72292321 1732.61515827 728.75341797 1734.64526367 C724.74605523 1738.69344844 720.58814962 1742.45351722 716.25341797 1746.14526367 C715.20095337 1747.04976815 714.14890437 1747.95475632 713.09716797 1748.86010742 C709.48939886 1751.96315482 705.87302187 1755.05603366 702.25341797 1758.14526367 C701.44662598 1758.83410645 701.44662598 1758.83410645 700.62353516 1759.53686523 C696.84776247 1762.75675374 693.05449144 1765.95530201 689.25341797 1769.14526367 C688.62628906 1769.67345703 687.99916016 1770.20165039 687.35302734 1770.74584961 C677.44777132 1779.07151378 667.2904726 1786.976538 656.89794922 1794.68432617 C653.11535258 1797.49059674 649.39508673 1800.36152632 645.69091797 1803.27026367 C639.73718475 1807.87960552 633.55774014 1812.1236387 627.3137207 1816.3293457 C623.13541783 1819.14759248 619.02403437 1822.02916414 614.96435547 1825.01635742 C608.94625637 1829.41723031 602.7523251 1833.51861787 596.50341797 1837.58276367 C595.93149719 1837.95543365 595.35957642 1838.32810364 594.77032471 1838.71206665 C586.71847811 1843.95570663 578.633255 1849.11078067 570.32470703 1853.9387207 C567.86533799 1855.37132346 565.41513528 1856.81911109 562.96435547 1858.26635742 C490.26482507 1901.07472679 414.1752974 1934.76739537 333.31103516 1958.93041992 C329.80106287 1959.97933477 326.29634294 1961.04484913 322.79248047 1962.11401367 C277.05745722 1975.93731322 229.56431645 1984.8707537 182.25341797 1991.14526367 C180.97128418 1991.31558105 179.68915039 1991.48589844 178.36816406 1991.66137695 C138.13497451 1996.94273738 98.10508055 1998.65162206 57.54052734 1998.53637695 C51.47061314 1998.51928663 45.40109375 1998.52946485 39.33119297 1998.54669666 C3.17333623 1998.63371592 -32.81693915 1997.61486532 -68.68408203 1992.70776367 C-70.33982877 1992.49023206 -71.99567495 1992.27345629 -73.65161133 1992.05737305 C-77.63341353 1991.53364509 -81.61272624 1990.99368177 -85.59094238 1990.44342041 C-87.61743219 1990.163127 -89.64439458 1989.88625641 -91.67138672 1989.60961914 C-141.49412018 1982.75346413 -190.59593469 1971.56139818 -238.74658203 1957.14526367 C-239.9102832 1956.79818359 -241.07398438 1956.45110352 -242.27294922 1956.09350586 C-257.57736109 1951.51316107 -272.7284341 1946.59237793 -287.74658203 1941.14526367 C-288.95588379 1940.70698242 -290.16518555 1940.26870117 -291.41113281 1939.81713867 C-309.80913175 1933.12488002 -327.89416027 1925.88930783 -345.8145752 1917.99407959 C-348.6178383 1916.76248232 -351.42560165 1915.54128094 -354.23306274 1914.31929016 C-357.25119094 1913.00454754 -360.26725913 1911.68513029 -363.28277588 1910.3644104 C-364.72548327 1909.73283064 -366.16861888 1909.10222784 -367.61224365 1908.4727478 C-377.82583054 1904.01334756 -387.82425156 1899.21867247 -397.74658203 1894.14526367 C-398.72933105 1893.64526855 -399.71208008 1893.14527344 -400.72460938 1892.63012695 C-436.80794461 1874.17549313 -472.24420264 1853.98861557 -505.74658203 1831.14526367 C-506.37306641 1830.72067871 -506.99955078 1830.29609375 -507.64501953 1829.85864258 C-522.63674745 1819.69482302 -537.32458823 1809.10235079 -551.74658203 1798.14526367 C-552.3735498 1797.6715332 -553.00051758 1797.19780273 -553.64648438 1796.7097168 C-563.59206052 1789.19306978 -573.36257339 1781.49441556 -582.99511719 1773.58081055 C-584.54633484 1772.30939156 -586.10491137 1771.04696257 -587.66455078 1769.78588867 C-598.52528392 1760.99463053 -609.0327963 1751.78865132 -619.32861328 1742.34448242 C-621.48094082 1740.38687272 -623.6643115 1738.47780733 -625.87158203 1736.58276367 C-629.5251112 1733.41388633 -632.91119176 1730.02174287 -636.27783203 1726.55151367 C-638.20212292 1724.67593901 -640.1383597 1722.9430024 -642.18017578 1721.20385742 C-647.88553371 1716.25105894 -653.17112764 1710.86993109 -658.5012207 1705.52099609 C-660.30520288 1703.71165435 -662.11446868 1701.90772048 -663.92431641 1700.10424805 C-669.24726371 1694.78404835 -674.49596866 1689.46398053 -679.37915039 1683.73095703 C-681.22707473 1681.58807744 -683.21647663 1679.61476891 -685.24658203 1677.64526367 C-689.29465294 1673.63801365 -693.05612524 1669.48100662 -696.74658203 1665.14526367 C-698.11396478 1663.54848273 -699.48253505 1661.95272349 -700.85107422 1660.35693359 C-701.87471804 1659.1625181 -702.89748847 1657.9673536 -703.91943359 1656.77148438 C-706.60396739 1653.63220482 -709.30062872 1650.50491156 -712.02392578 1647.39916992 C-718.23694283 1640.30689135 -724.23969493 1633.11227558 -730.01220703 1625.65698242 C-732.32602917 1622.66982139 -734.69218676 1619.72891312 -737.07226562 1616.79443359 C-743.9934395 1608.24468137 -750.53475912 1599.43749215 -757.00292969 1590.54174805 C-758.69733422 1588.2129501 -760.39912971 1585.88971296 -762.10205078 1583.56713867 C-769.06829217 1574.03346102 -775.75254211 1564.34380711 -782.22412109 1554.46801758 C-783.77592944 1552.10048958 -785.33543489 1549.73814324 -786.89501953 1547.37573242 C-802.88055434 1523.06916018 -817.59977431 1497.97041444 -831.68408203 1472.52026367 C-832.08393311 1471.8007251 -832.48378418 1471.08118652 -832.89575195 1470.33984375 C-837.07206111 1462.72452341 -840.89330149 1454.92711067 -844.74658203 1447.14526367 C-845.08495087 1446.46332947 -845.4233197 1445.78139526 -845.77194214 1445.07879639 C-855.23885949 1425.99131952 -864.31145119 1406.83483219 -872.49023438 1387.15454102 C-873.65774468 1384.35805209 -874.84668039 1381.57217182 -876.04736328 1378.78979492 C-879.73898511 1370.21162934 -883.12267911 1361.6012763 -886.12939453 1352.75854492 C-887.28756244 1349.38466499 -888.53172162 1346.04731077 -889.79580688 1342.71176147 C-893.2291474 1333.64962855 -896.43270451 1324.52603813 -899.49658203 1315.33276367 C-899.87959976 1314.18581024 -899.87959976 1314.18581024 -900.27035522 1313.01568604 C-905.76513237 1296.50692769 -910.59663124 1279.83669398 -915.215271 1263.0647583 C-916.01212384 1260.18592717 -916.82789358 1257.31247612 -917.64111328 1254.43823242 C-924.65263908 1229.37290268 -930.27013725 1203.78445245 -934.74658203 1178.14526367 C-934.98538086 1176.78860596 -934.98538086 1176.78860596 -935.22900391 1175.40454102 C-939.76703771 1149.4344507 -943.29167393 1123.39418835 -945.74658203 1097.14526367 C-945.84181152 1096.14140625 -945.93704102 1095.13754883 -946.03515625 1094.10327148 C-948.88551433 1063.62041858 -950.13206287 1033.17394789 -950.06423569 1002.56875229 C-950.05898499 1000.0359548 -950.05707948 997.50316969 -950.05557251 994.97036743 C-950.01849159 959.06666889 -949.07145778 923.15184409 -944.06542969 887.5480957 C-943.66059884 884.49729543 -943.3671737 881.4420286 -943.08129883 878.37817383 C-940.96464608 855.84161268 -937.02512463 833.35784401 -932.74658203 811.14526367 C-932.60430176 810.38761719 -932.46202148 809.6299707 -932.31542969 808.84936523 C-930.07959535 796.94721373 -927.43226871 785.13982312 -924.74658203 773.33276367 C-924.57904419 772.59313385 -924.41150635 771.85350403 -924.2388916 771.09146118 C-921.95814603 761.04410484 -919.46082357 751.08556625 -916.74658203 741.14526367 C-916.12677233 738.83537268 -915.50698044 736.5254769 -914.88720703 734.21557617 C-910.87122851 719.40349153 -906.55512751 704.73555035 -901.7421875 690.1628418 C-900.74625106 687.14426053 -899.763281 684.12167704 -898.78173828 681.09838867 C-878.10769632 617.79279856 -850.20756665 555.94651764 -816.23730469 498.67749023 C-814.31979792 495.42030382 -812.46915613 492.13009054 -810.62158203 488.83276367 C-805.64180138 480.07816001 -800.1751904 471.62596858 -794.74658203 463.14526367 C-793.91707257 461.84453495 -793.08763954 460.54375749 -792.25830078 459.24291992 C-775.26105697 432.63508499 -756.87018083 407.0286088 -737.36328125 382.20727539 C-735.84967038 380.27674724 -734.34522513 378.33952054 -732.84423828 376.39916992 C-726.87242794 368.69917955 -720.65075857 361.25691652 -714.26269531 353.8996582 C-712.74609168 352.14469626 -711.24245212 350.37946257 -709.74267578 348.61010742 C-703.82744791 341.63900174 -697.7685534 334.83754884 -691.53564453 328.14916992 C-689.13522578 325.57265554 -686.77747073 322.96139631 -684.43408203 320.33276367 C-674.03647748 308.77372457 -663.28859084 297.58765645 -652.30908203 286.58276367 C-651.79497772 286.06607117 -651.28087341 285.54937866 -650.75119019 285.01702881 C-645.51521462 279.76024693 -640.25252273 274.59009195 -634.61254883 269.76171875 C-631.27099997 266.8669922 -628.08280322 263.80783084 -624.87158203 260.77026367 C-616.36336203 252.76611075 -607.80586038 244.93520396 -598.71923828 237.58666992 C-595.40905806 234.86805936 -592.17186271 232.07416115 -588.93408203 229.27026367 C-582.0457762 223.32951075 -574.95180145 217.69497576 -567.74658203 212.14526367 C-566.77446777 211.3935791 -566.77446777 211.3935791 -565.78271484 210.62670898 C-545.24696621 194.75772653 -524.24042156 179.72758317 -502.61425781 165.38793945 C-500.71531964 164.12446295 -498.82207964 162.85283912 -496.93017578 161.57885742 C-496.29217041 161.15032471 -495.65416504 160.72179199 -494.99682617 160.28027344 C-493.81634786 159.48708914 -492.6369845 158.69224046 -491.45922852 157.89501953 C-467.51995476 141.84439213 -442.0770767 127.85856311 -416.74658203 114.14526367 C-415.8394043 113.65300293 -414.93222656 113.16074219 -413.99755859 112.65356445 C-382.00753232 95.35539318 -348.4810395 80.6833663 -314.74658203 67.14526367 C-313.83360352 66.77739746 -312.920625 66.40953125 -311.97998047 66.03051758 C-295.82988862 59.56739287 -279.29111298 54.2099813 -262.7645874 48.80664062 C-259.64838236 47.78534196 -256.53579234 46.75311374 -253.42236328 45.72338867 C-227.35899608 37.15955463 -200.92656631 30.29890887 -174.24853516 23.9777832 C-170.66271138 23.1253251 -167.08159427 22.2555241 -163.50341797 21.37158203 C-157.65848151 19.97610661 -151.81682289 18.75078829 -145.89501953 17.72729492 C-145.16330536 17.59955688 -144.43159119 17.47181885 -143.67770386 17.34020996 C-131.45353332 15.21455015 -119.21099521 13.19664164 -106.96893311 11.17715454 C-103.12914591 10.54302785 -99.29173673 9.89836443 -95.45751953 9.23120117 C-72.67453221 5.33279598 -49.45949563 3.18278338 -26.40112305 1.74072266 C-24.81255493 1.64126343 -24.81255493 1.64126343 -23.19189453 1.53979492 C-22.27939941 1.48670166 -21.3669043 1.4336084 -20.42675781 1.37890625 C-17.77294571 1.20049574 -17.77294571 1.20049574 -15.31323242 0.63973999 C-10.20562191 -0.06837327 -5.15058923 -0.00210951 0 0 Z " fill="#DD4814" transform="translate(949.74658203125,-0.145263671875)"/>
<path d="M0 0 C1.23768127 0.0015509 2.47536255 0.00310181 3.75054932 0.00469971 C41.99147652 0.06098821 77.97049969 3.07080297 115.625 9.75 C116.78757324 9.9560083 117.95014648 10.1620166 119.14794922 10.37426758 C129.38678097 12.2139761 139.42895665 14.52352844 149.5 17.125 C150.53125 17.38539063 151.5625 17.64578125 152.625 17.9140625 C154.10613281 18.29691406 154.10613281 18.29691406 155.6171875 18.6875 C156.50776855 18.91566406 157.39834961 19.14382813 158.31591797 19.37890625 C160.625 20.125 160.625 20.125 163.625 22.125 C164.36315636 24.77031136 164.93502422 27.3091585 165.4375 30 C168.66706207 45.66059878 172.99259804 60.03038128 180.625 74.125 C181.56604499 76.10248357 182.50362019 78.08162255 183.4375 80.0625 C202.60601426 118.34841249 239.4867073 150.4580088 279.625 165.125 C280.78644531 165.58648438 281.94789063 166.04796875 283.14453125 166.5234375 C302.34769639 173.94554896 323.04121028 177.35744518 343.5625 177.375 C344.62371063 177.37601212 344.62371063 177.37601212 345.70635986 177.37704468 C366.55206627 177.34563551 387.36407752 175.40373214 406.8125 167.40625 C410.15878542 166.15598503 412.21670035 165.66022908 415.625 167.125 C418.2734375 169.34765625 418.2734375 169.34765625 421 172.1875 C421.48114258 172.68411133 421.96228516 173.18072266 422.45800781 173.69238281 C425.76064944 177.12792752 428.92231172 180.67327945 432.015625 184.296875 C433.65086434 186.15437988 435.35981793 187.89106009 437.125 189.625 C444.20443464 196.61004218 450.37584921 204.40374037 456.625 212.125 C457.55335983 213.26043759 458.48174628 214.39585341 459.41015625 215.53125 C467.20930852 225.12030772 474.48534736 235.03802596 481.625 245.125 C482.0384668 245.70459473 482.45193359 246.28418945 482.87792969 246.88134766 C489.87586244 256.69814078 496.26942811 266.88546751 502.625 277.125 C503.01655273 277.75067871 503.40810547 278.37635742 503.81152344 279.02099609 C519.71528231 304.49130174 534.21402903 331.93131465 544.625 360.125 C545.12699207 361.46897878 545.62962436 362.81271857 546.1328125 364.15625 C546.90594663 366.22093295 547.67770394 368.28601929 548.44262695 370.35375977 C549.93595156 374.37220525 551.54183874 378.31652774 553.25 382.25 C555.44080642 387.42889998 556.98006748 392.64897785 558.453125 398.0703125 C560.10818711 403.98339803 562.15642748 409.77689424 564.16357422 415.57788086 C565.75882486 420.25464326 567.10266888 424.86980215 568.11083984 429.70678711 C568.70774052 432.51414762 569.3812759 435.29785061 570.0625 438.0859375 C570.44535156 439.65988281 570.44535156 439.65988281 570.8359375 441.265625 C571.36018047 443.41450211 571.88621012 445.56294416 572.4140625 447.7109375 C573.86636309 453.69617631 575.15429284 459.67055262 576.1953125 465.74145508 C576.60166965 467.99558284 577.08979537 470.21090625 577.625 472.4375 C578.72505144 477.28113736 579.38897935 482.16273803 580.05859375 487.08203125 C580.45305877 489.96069521 580.88890904 492.83010482 581.34765625 495.69921875 C582.77961311 504.71692175 583.97458844 513.71869512 584.8125 522.8125 C584.89628906 523.70839844 584.98007813 524.60429688 585.06640625 525.52734375 C585.5483269 531.07774023 585.66125065 536.55562102 585.625 542.125 C564.6403749 542.84632698 543.66023167 543.37529361 522.66495895 543.65742874 C520.39569728 543.68806435 518.12645315 543.7198264 515.85720825 543.75167847 C475.78159116 544.30630463 435.70342847 544.22358265 395.625 544.125 C394.9883648 540.3309326 394.35341879 536.53658429 393.71875 532.7421875 C393.45143066 531.1492688 393.45143066 531.1492688 393.17871094 529.52416992 C392.22684365 523.82824848 391.30382411 518.13023556 390.45085144 512.41862488 C387.12740904 490.30026366 382.23634699 467.13948051 373.3125 446.5625 C370.99224521 441.09732154 368.88535628 435.5740973 366.85620117 429.99584961 C353.29518766 393.1228753 330.68138519 359.1272622 305.625 329.125 C304.42423828 327.64386719 304.42423828 327.64386719 303.19921875 326.1328125 C296.5949979 318.09882455 289.39267859 310.67835501 282.0625 303.3125 C281.57980652 302.82463013 281.09711304 302.33676025 280.59979248 301.83410645 C274.70166832 295.88617 268.62726881 290.30465829 262.0625 285.09106445 C259.6910489 283.17827442 257.43286425 281.18340726 255.1875 279.125 C249.93816159 274.42188904 244.32775003 270.25719811 238.625 266.125 C237.68092285 265.43615723 237.68092285 265.43615723 236.71777344 264.73339844 C216.23869105 249.83499057 194.36434568 237.26283314 171.625 226.125 C170.62597656 225.63257813 169.62695312 225.14015625 168.59765625 224.6328125 C161.73055462 221.36978703 154.82180846 218.65665833 147.62524414 216.21728516 C143.19253584 214.71215502 138.9305513 212.97093762 134.625 211.125 C111.05863222 202.82853602 86.28816736 197.9731604 61.6875 193.9375 C60.68146729 193.77040527 59.67543457 193.60331055 58.63891602 193.43115234 C46.94373562 191.56966227 35.31613327 190.97092448 23.484375 190.9921875 C21.67468231 190.99075241 21.67468231 190.99075241 19.82843018 190.98928833 C17.29398547 190.98861267 14.75953897 190.99042371 12.22509766 190.99462891 C8.39872234 190.99996691 4.57246539 190.99467247 0.74609375 190.98828125 C-24.38084379 190.900756 -24.38084379 190.900756 -49.2109375 194.30859375 C-52.94076432 195.06546086 -56.68317661 195.64726277 -60.44750977 196.20361328 C-69.21292082 197.49951535 -77.69805749 199.26028681 -86.25317383 201.57080078 C-87.81584125 201.97895347 -89.38440927 202.36467621 -90.95581055 202.73779297 C-99.56212944 204.79413794 -107.92791522 207.44755087 -116.3125 210.25 C-117.03101135 210.48844635 -117.74952271 210.7268927 -118.48980713 210.9725647 C-128.64458735 214.35312106 -138.57049459 218.04295037 -148.32006836 222.48291016 C-149.08843018 222.83272949 -149.85679199 223.18254883 -150.6484375 223.54296875 C-151.30247559 223.85000732 -151.95651367 224.1570459 -152.63037109 224.47338867 C-154.375 225.125 -154.375 225.125 -157.375 225.125 C-157.70072998 224.51841553 -158.02645996 223.91183105 -158.36206055 223.28686523 C-164.90636923 211.11488486 -171.53131584 198.99747917 -178.35839844 186.98168945 C-182.55301123 179.59484376 -186.69336227 172.17917805 -190.8125 164.75 C-195.6474817 156.03080485 -200.49801003 147.32077164 -205.375 138.625 C-210.22870059 129.96956497 -215.05980611 121.30191479 -219.875 112.625 C-224.86325845 103.63925711 -229.85949065 94.65806581 -234.875 85.6875 C-235.42607422 84.70007813 -235.97714844 83.71265625 -236.54492188 82.6953125 C-237.07666016 81.74527344 -237.60839844 80.79523438 -238.15625 79.81640625 C-238.67316406 78.88973145 -239.19007813 77.96305664 -239.72265625 77.00830078 C-240.90494652 74.94523222 -242.12569662 72.90401619 -243.37109375 70.87841797 C-244.02207031 69.81381348 -244.67304687 68.74920898 -245.34375 67.65234375 C-245.94638672 66.6893335 -246.54902344 65.72632324 -247.16992188 64.73413086 C-248.375 62.125 -248.375 62.125 -248.35424805 59.94116211 C-246.96051357 57.35627286 -245.38881561 56.76397346 -242.73828125 55.5390625 C-241.29400757 54.85976685 -241.29400757 54.85976685 -239.82055664 54.16674805 C-238.78664795 53.69922119 -237.75273926 53.23169434 -236.6875 52.75 C-235.63618896 52.26249268 -234.58487793 51.77498535 -233.50170898 51.27270508 C-230.46704672 49.87268434 -227.42360423 48.49435066 -224.375 47.125 C-223.64861328 46.7964502 -222.92222656 46.46790039 -222.17382812 46.12939453 C-207.49830317 39.52846252 -192.25521767 34.26799664 -177 29.1875 C-176.2178714 28.92698853 -175.4357428 28.66647705 -174.62991333 28.39807129 C-160.67360113 23.76653532 -146.66819638 19.6015088 -132.375 16.125 C-131.7180011 15.96429016 -131.0610022 15.80358032 -130.38409424 15.63800049 C-104.5725097 9.33394082 -78.88390586 4.3909039 -52.34423828 2.35864258 C-50.39220837 2.17829852 -50.39220837 2.17829852 -48.62304688 1.63500977 C-45.22754097 0.86467833 -41.80271696 0.7452866 -38.3359375 0.5703125 C-37.09908707 0.50724411 -37.09908707 0.50724411 -35.83724976 0.44290161 C-23.89843652 -0.10162885 -11.9483657 -0.0264851 0 0 Z " fill="#FEFEFE" transform="translate(992.375,419.875)"/>
<path d="M0 0 C11.97911712 -0.06396598 23.9582344 -0.10286485 35.9375 -0.125 C36.85718441 -0.12671204 37.77686882 -0.12842407 38.72442245 -0.13018799 C73.42949086 -0.18694933 108.11505509 0.29814736 142.8125 1 C143.99530926 1.02391563 145.17811852 1.04783127 146.39677048 1.07247162 C160.93148816 1.36763174 175.46588 1.67678139 190 2 C190.07351224 10.15713572 189.68444795 18.12932575 188.88305664 26.25048828 C188.68921246 28.23249062 188.50958037 30.21586609 188.33007812 32.19921875 C187.56063434 40.16197546 186.35889532 47.87945828 184.69458008 55.69262695 C184.04910605 58.76617235 183.49967354 61.83735397 183 64.9375 C181.91227883 71.64361565 180.66307575 78.3159982 179.38232422 84.98730469 C179.01728894 86.90898465 178.66648992 88.83335257 178.31640625 90.7578125 C177.10580839 97.20065532 175.65978042 103.46330789 173.7734375 109.7421875 C173.55703613 110.46980789 173.34063477 111.19742828 173.11767578 111.94709778 C172.41606177 114.29937289 171.70903176 116.64995064 171 119 C170.64267792 120.18452255 170.64267792 120.18452255 170.27813721 121.39297485 C168.78743249 126.32430994 167.28312508 131.25137025 165.77050781 136.17602539 C164.99763349 138.69521364 164.2292882 141.21575706 163.4609375 143.73632812 C158.29513882 160.60827456 152.20727485 176.88861085 145 193 C144.60804443 193.8772876 144.21608887 194.7545752 143.81225586 195.65844727 C121.10944558 246.21961629 92.74633104 293.50563708 57 336 C56.55333984 336.53157715 56.10667969 337.0631543 55.64648438 337.61083984 C46.44367988 348.5352786 37.00507827 359.27137792 26.73046875 369.20703125 C24.94822875 371.0536411 23.47394153 373.00987864 21.9375 375.0625 C20.48828125 376.77734375 20.48828125 376.77734375 19 378 C14.87186709 378.15289381 12.1264965 377.04931897 8.29296875 375.5546875 C1.83986767 373.12142949 -4.86673796 371.84789156 -11.61181641 370.48632812 C-13.12169915 370.1788566 -14.62956596 369.86115269 -16.13427734 369.52929688 C-48.89737506 362.3708428 -89.37359537 365.594767 -119.47338867 380.77807617 C-121.85538941 381.93006319 -124.23605467 382.88862171 -126.7109375 383.8203125 C-131.89658906 385.8738746 -136.64052854 388.41804104 -141.4375 391.25 C-142.26443359 391.73452637 -143.09136719 392.21905273 -143.94335938 392.71826172 C-150.25021061 396.45909015 -156.23470582 400.46156042 -162 405 C-162.81597656 405.61359375 -163.63195313 406.2271875 -164.47265625 406.859375 C-184.30844831 422.29718602 -199.65805232 441.26637102 -212 463 C-212.56460937 463.95390625 -213.12921875 464.9078125 -213.7109375 465.890625 C-217.22251096 471.98685913 -219.64989091 478.19995798 -221.9140625 484.85546875 C-223 488 -223 488 -224.5625 491.5625 C-227.92825511 499.61104484 -230.08781141 507.87559929 -231.625 516.44140625 C-231.7590625 517.17266724 -231.893125 517.90392822 -232.03125 518.65734863 C-232.35719553 520.43768056 -232.67903246 522.21876389 -233 524 C-253.5632356 529.04710465 -274.01782108 534.00919579 -295 537 C-296.78263417 537.26376871 -298.56518657 537.52809069 -300.34765625 537.79296875 C-304.68142381 538.42992363 -309.01882181 539.03639067 -313.35839844 539.63232422 C-316.1079623 540.01502692 -318.85473216 540.4145815 -321.6015625 540.81640625 C-323.48434057 541.08617792 -325.36715219 541.3557155 -327.25 541.625 C-328.07580566 541.74818604 -328.90161133 541.87137207 -329.75244141 541.99829102 C-343.72004685 543.96167989 -357.84433533 544.16094082 -371.92578125 544.16796875 C-373.49024991 544.1711991 -375.0547183 544.17456434 -376.6191864 544.17805481 C-379.87039895 544.18397812 -383.12158519 544.18590173 -386.37280273 544.18530273 C-389.66061907 544.18522145 -392.94829615 544.19217945 -396.23608398 544.20581055 C-413.60293918 544.27673493 -430.7465705 544.24846667 -448 542 C-450.06555226 541.80083107 -452.1318974 541.60956748 -454.19921875 541.4296875 C-487.66401632 538.16732034 -521.92826498 531.08664179 -554 521 C-554.89847656 520.71833984 -555.79695312 520.43667969 -556.72265625 520.14648438 C-563.157062 518.12436628 -569.58444834 516.081191 -576 514 C-576.82435547 513.73348633 -577.64871094 513.46697266 -578.49804688 513.19238281 C-582.26007368 511.96052769 -585.92027582 510.70463056 -589.5 509 C-592.40335138 507.67117769 -595.27070598 506.53258566 -598.3125 505.5625 C-608.32876974 502.3524362 -617.89353645 497.75859966 -627.4375 493.375 C-628.48615234 492.89804688 -629.53480469 492.42109375 -630.61523438 491.9296875 C-632.13407227 491.23359375 -632.13407227 491.23359375 -633.68359375 490.5234375 C-634.58650146 490.11013184 -635.48940918 489.69682617 -636.41967773 489.27099609 C-639.04187737 487.97937235 -641.51578121 486.53826274 -644 485 C-643.4032013 480.99447552 -642.13681748 478.07062902 -640.1484375 474.5546875 C-639.55184326 473.4910498 -638.95524902 472.42741211 -638.34057617 471.33154297 C-637.69193604 470.19088379 -637.0432959 469.05022461 -636.375 467.875 C-635.69892907 466.67503412 -635.02356627 465.47466902 -634.34887695 464.27392578 C-632.94268236 461.77229921 -631.53342697 459.27243066 -630.12255859 456.7734375 C-628.06915915 453.13024516 -626.04038741 449.47382329 -624.01953125 445.8125 C-612.39318286 424.75838964 -612.39318286 424.75838964 -606.3190918 414.63623047 C-603.05149699 409.17759997 -600.02205678 403.59758275 -597 398 C-596.48800049 397.0527002 -595.97600098 396.10540039 -595.44848633 395.12939453 C-594.40156855 393.19136102 -593.35502305 391.25312636 -592.30883789 389.31469727 C-587.0594234 379.59446687 -581.74794213 369.91720264 -576.30175781 360.30615234 C-573.49748868 355.33819919 -570.72126211 350.35446227 -567.9375 345.375 C-563.00416703 336.55665907 -558.04359029 327.75579805 -553 319 C-549.01737178 319.67239178 -545.45155817 320.85646313 -541.6875 322.3125 C-540.08455078 322.92544922 -540.08455078 322.92544922 -538.44921875 323.55078125 C-535.9248029 324.61143616 -533.55451086 325.71521728 -531.12890625 326.96484375 C-526.94597591 329.0870107 -522.67938627 330.71869003 -518.25 332.25 C-517.404375 332.54302002 -516.55875 332.83604004 -515.6875 333.13793945 C-475.31019884 346.84819627 -434.69289539 353.22209542 -392.125 353.25 C-390.92224426 353.25133942 -389.71948853 353.25267883 -388.48028564 353.25405884 C-369.77111652 353.24954145 -351.54888631 352.49912876 -333 350 C-331.27506023 349.80187565 -329.54981804 349.60635802 -327.82421875 349.4140625 C-306.58274281 346.85176919 -285.26879494 340.71306635 -265 334 C-263.25160667 333.49441048 -261.50173968 332.99387053 -259.75 332.5 C-253.98165165 330.78299999 -248.52414481 328.36951154 -243 326 C-241.10436723 325.22867356 -239.20853217 324.45784412 -237.3125 323.6875 C-197.80995199 307.13015776 -162.3222693 283.9338672 -130 256 C-129.21882813 255.33226562 -128.43765625 254.66453125 -127.6328125 253.9765625 C-121.61811591 248.71110147 -115.97458391 243.07689669 -110.3125 237.4375 C-109.50409668 236.63376953 -108.69569336 235.83003906 -107.86279297 235.00195312 C-84.25400882 211.33005686 -64.694449 183.453149 -48.34228516 154.38330078 C-46.98155091 151.96724262 -45.60667656 149.5596152 -44.23046875 147.15234375 C-38.43569903 137.04894402 -38.43569903 137.04894402 -33.9140625 126.3359375 C-33.08078388 124.2064477 -32.12488389 122.25679018 -31.078125 120.2265625 C-29.06218792 116.24917313 -27.5443142 112.22107729 -26.125 108 C-23.14647777 99.30119979 -23.14647777 99.30119979 -21.52734375 95.25390625 C-9.66896777 65.37079878 -3.05120092 31.94656181 0 0 Z " fill="#FEFEFE" transform="translate(1388,1034)"/>
<path d="M0 0 C3.99008918 1.33002973 4.81258292 3.7347659 6.69140625 7.24609375 C7.40355429 8.53455287 8.1172962 9.82213215 8.83251953 11.10888672 C9.19371887 11.7623407 9.55491821 12.41579468 9.92706299 13.08905029 C12.77872534 18.16799088 15.89366707 23.09744664 18.9375 28.0625 C25.06109945 38.08670832 31.07615137 48.16901411 37 58.3125 C37.3600412 58.92894379 37.7200824 59.54538757 38.09103394 60.18051147 C38.80113353 61.39644205 39.51122188 62.6123792 40.22129822 63.82832336 C44.40611264 70.99428345 48.64153518 78.12561808 52.93139648 85.22904968 C59.90924541 96.79313645 66.81051202 108.40232317 73.69775391 120.02050781 C76.4617282 124.68238857 79.22909715 129.34223409 82 134 C82.40426208 134.68012146 82.80852417 135.36024292 83.22503662 136.06097412 C84.42669154 138.0808991 85.63093261 140.09925956 86.8359375 142.1171875 C87.19393433 142.71950195 87.55193115 143.32181641 87.92077637 143.94238281 C90.73153914 148.6396144 93.74159702 153.15134508 96.8828125 157.6328125 C98 160 98 160 98.02734375 162.5234375 C96.57719413 166.01923545 94.50355239 167.30297596 91.4375 169.5 C90.24837525 170.37409606 89.06095255 171.25051104 87.875 172.12890625 C87.24464844 172.59184082 86.61429688 173.05477539 85.96484375 173.53173828 C72.99273004 183.22536301 60.67781175 193.89403362 49.5234375 205.63671875 C48 207 48 207 46 207 C45.79503906 207.53496094 45.59007812 208.06992187 45.37890625 208.62109375 C43.43805777 211.96946973 40.70902638 214.40922018 37.9375 217.0625 C33.04589229 221.85408719 28.51193438 226.74464706 24.265625 232.12890625 C22.70777153 234.10308263 21.1114017 236.04727657 19.484375 237.96484375 C-13.49802332 277.10710322 -37.95106595 325.7063423 -51.42773438 374.93554688 C-51.99728014 376.99018808 -52.59815277 379.03366902 -53.203125 381.078125 C-56.24289267 391.64493644 -58.27760719 402.37036758 -60.1875 413.1875 C-60.31405975 413.90026093 -60.44061951 414.61302185 -60.5710144 415.34738159 C-70.37472542 470.94066983 -67.28136941 527.34745226 -52.83666992 581.81835938 C-52.18827845 584.28402547 -51.57113796 586.75072802 -50.98046875 589.23046875 C-38.76529681 636.19318157 -14.94072816 680.83978683 14.55615234 719.12255859 C15.94993739 720.93490337 17.32922197 722.75752805 18.70703125 724.58203125 C24.62801022 732.34776456 31.03939397 739.50998362 37.76953125 746.58203125 C40.38072168 749.32600686 42.89792304 752.13359856 45.375 755 C48.36186016 758.39993657 51.55748813 761.34406764 55.01171875 764.26171875 C57.05298372 766.04632172 58.92662875 767.9276747 60.8125 769.875 C65.059394 774.17127649 69.65076556 777.94020341 74.37402344 781.69921875 C76.17796896 783.14237517 77.96810139 784.60173326 79.7578125 786.0625 C81.06748188 787.12527912 82.37737595 788.18778142 83.6875 789.25 C84.29279541 789.74532227 84.89809082 790.24064453 85.52172852 790.75097656 C89.80878685 794.20477894 94.27468984 797.1779505 99 800 C97.74600062 803.31375233 96.33437881 806.30901508 94.49609375 809.3359375 C93.75456055 810.56376953 93.75456055 810.56376953 92.99804688 811.81640625 C92.48306641 812.66074219 91.96808594 813.50507812 91.4375 814.375 C90.43609121 816.02858122 89.43479243 817.68222906 88.43359375 819.3359375 C87.89395996 820.22506836 87.35432617 821.11419922 86.79833984 822.03027344 C79.96555785 833.3137326 73.22649663 844.65297877 66.5 856 C59.99574335 866.97212149 53.45658534 877.92242176 46.88525391 888.85449219 C41.05787678 898.55063566 35.26863693 908.26880569 29.5 918 C24.38751754 926.62431815 19.26804019 935.24391463 14.09570312 943.83251953 C10.95446462 949.05439524 7.88279498 954.31518349 4.82421875 959.5859375 C3 962 3 962 1.09399414 962.76879883 C-2.64015849 963.18109247 -5.35964147 960.41946424 -8.25 958.3125 C-8.95020264 957.81572754 -9.65040527 957.31895508 -10.37182617 956.80712891 C-12.59358408 955.22111573 -14.79867904 953.61423734 -17 952 C-18.05598389 951.22873779 -18.05598389 951.22873779 -19.13330078 950.44189453 C-32.60580851 940.56499415 -45.36549203 929.91696024 -58 919 C-59.11181641 918.04287109 -59.11181641 918.04287109 -60.24609375 917.06640625 C-62.17738436 915.3920857 -64.09105449 913.699746 -66 912 C-67.15822266 910.98099609 -67.15822266 910.98099609 -68.33984375 909.94140625 C-75.73663141 903.30870569 -82.78082663 896.32738538 -89.8125 889.3125 C-90.56202438 888.56685791 -90.56202438 888.56685791 -91.32669067 887.80615234 C-96.56505363 882.5891687 -101.71540527 877.33672514 -106.52661133 871.71850586 C-108.60244226 869.29733371 -110.77256243 866.96644662 -112.9375 864.625 C-116.73660857 860.45454999 -120.34557287 856.19849017 -123.828125 851.76171875 C-125.42702843 849.72858076 -127.0395227 847.71293667 -128.671875 845.70703125 C-163.90636028 802.32460836 -193.55582121 753.06605307 -214 701 C-214.6868586 699.29140868 -215.37426897 697.58303896 -216.0625 695.875 C-216.36800781 695.10027344 -216.67351562 694.32554687 -216.98828125 693.52734375 C-217.73684762 691.65737293 -218.50868337 689.79667952 -219.29296875 687.94140625 C-225.94363993 671.94770103 -230.91360786 655.31328912 -235.5 638.625 C-235.75523437 637.6980835 -236.01046875 636.77116699 -236.2734375 635.81616211 C-238 629.38580802 -238 629.38580802 -238 626 C-235.83984375 623.984375 -235.83984375 623.984375 -232.9375 621.75 C-215.60456014 607.98104905 -202.39066014 589.31614577 -192.02001953 569.89599609 C-191.04345373 568.0807711 -190.04103218 566.28298326 -189.02734375 564.48828125 C-188.42019531 563.39902344 -187.81304687 562.30976562 -187.1875 561.1875 C-186.66542969 560.25292969 -186.14335937 559.31835938 -185.60546875 558.35546875 C-165.42486655 516.17751915 -164.65560482 463.87006275 -179.875 420.125 C-189.99821886 392.24140553 -207.73903313 359.89034871 -232.40234375 342.28515625 C-234.65442207 340.64903097 -236.37731316 339.26334417 -238 337 C-238.47726799 333.09637528 -237.15537044 329.70543804 -236 326 C-235.58832252 324.47802019 -235.18253364 322.9544407 -234.78125 321.4296875 C-230.26641135 304.60121023 -224.54227529 288.14202139 -218 272 C-217.47725165 270.67523323 -216.95627072 269.34976694 -216.4375 268.0234375 C-214.13456999 262.178501 -211.82590367 256.41554264 -208.91015625 250.84375 C-207.91514235 248.82809953 -207.11437085 246.78746672 -206.3125 244.6875 C-199.92390052 228.48167044 -191.5577746 213.13985887 -183 198 C-182.50016602 197.11473633 -182.00033203 196.22947266 -181.48535156 195.31738281 C-165.13796404 166.5692586 -146.16183297 139.40100401 -125 114 C-124.5246582 113.42556152 -124.04931641 112.85112305 -123.55957031 112.25927734 C-117.52794745 104.9761666 -111.27011115 97.94626775 -104.81640625 91.03515625 C-102.43367207 88.480808 -100.11756749 85.87484564 -97.8125 83.25 C-93.50881908 78.44974051 -88.98693822 73.87811095 -84.4375 69.3125 C-83.37462769 68.24273926 -83.37462769 68.24273926 -82.2902832 67.15136719 C-78.27853833 63.15124517 -74.16832633 59.33139662 -69.87768555 55.63256836 C-67.08079067 53.20078627 -64.39049082 50.65996015 -61.6875 48.125 C-55.98541755 42.82702811 -50.08614272 37.85422911 -44 33 C-42.88208806 32.0907337 -41.7649394 31.1805284 -40.6484375 30.26953125 C-31.3485657 22.71299007 -21.78357974 15.55036091 -12.08349609 8.51660156 C-10.27147641 7.19761091 -8.47136887 5.86463842 -6.67578125 4.5234375 C-5.79277344 3.87632812 -4.90976562 3.22921875 -4 2.5625 C-3.278125 2.02753906 -2.55625 1.49257813 -1.8125 0.94140625 C-1.214375 0.63074219 -0.61625 0.32007813 0 0 Z " fill="#FEFEFE" transform="translate(677,517)"/>
<path d="M0 0 C2.23483834 0.68496344 4.49548782 1.28683485 6.765625 1.84375 C26.55121959 6.82017678 43.88924644 18.05578348 58.71875 31.84375 C60.99260677 33.96291902 60.99260677 33.96291902 63.5234375 35.8671875 C68.03734081 39.60038426 71.42582428 44.31557473 75.0078125 48.921875 C75.59691406 49.67210937 76.18601562 50.42234375 76.79296875 51.1953125 C86.43190168 64.18394553 93.60607856 79.39044037 98.0078125 94.921875 C98.21664063 95.64826172 98.42546875 96.37464844 98.640625 97.12304688 C104.92977227 120.07047345 103.60837183 144.25664608 97.0078125 166.921875 C96.68554688 168.15808594 96.36328125 169.39429688 96.03125 170.66796875 C87.77728889 200.56166268 64.37173369 228.76724487 37.75537109 244.23046875 C13.64796999 257.81210318 -9.4185537 264.05984393 -37.13378906 263.0234375 C-39.56571526 262.9370281 -41.98880106 262.8997676 -44.421875 262.890625 C-61.43297019 262.47317481 -78.08782867 256.9094878 -92.9921875 248.921875 C-94.03503906 248.36628906 -95.07789063 247.81070312 -96.15234375 247.23828125 C-128.99736305 228.88745111 -150.53212833 199.21846099 -160.99609375 163.484375 C-170.45871467 129.6415896 -165.05621608 93.8435325 -148.046875 63.4453125 C-143.88286193 56.4726318 -139.29927017 50.0644197 -133.9921875 43.921875 C-132.74115234 42.46974609 -132.74115234 42.46974609 -131.46484375 40.98828125 C-109.09028048 15.53894637 -78.23374393 -0.2319716 -44.45117188 -2.92578125 C-29.92437223 -3.8257736 -13.98594169 -4.32218606 0 0 Z " fill="#FEFEFE" transform="translate(351.9921875,869.078125)"/>
<path d="M0 0 C1.01151123 0.00749268 2.02302246 0.01498535 3.06518555 0.02270508 C40.422442 0.5535417 72.15262743 15.79459556 98.9375 41.25 C99.58332031 41.83136719 100.22914063 42.41273438 100.89453125 43.01171875 C117.78733171 58.7176714 130.66850298 84.63053578 133.515625 107.44140625 C133.89654633 110.40221569 133.89654633 110.40221569 134.96484375 113.78515625 C136.42893092 119.49832285 136.27833629 125.26102987 136.25 131.125 C136.24508545 132.32374756 136.2401709 133.52249512 136.23510742 134.75756836 C136.10716823 144.5314665 135.16852188 153.74400224 132.9375 163.25 C132.77121094 163.99008301 132.60492187 164.73016602 132.43359375 165.49267578 C129.79604933 176.95866751 125.62510698 186.98039861 119.9375 197.25 C119.3703125 198.30832031 118.803125 199.36664063 118.21875 200.45703125 C105.28594726 223.7299758 86.07514456 240.57370578 62.9375 253.25 C62.27878906 253.62640625 61.62007812 254.0028125 60.94140625 254.390625 C32.52422857 269.79090193 -5.13033407 271.22698095 -35.75 262.5 C-57.02282348 255.37306421 -74.65505471 244.50838968 -91.0625 229.25 C-92.06410156 228.34701172 -92.06410156 228.34701172 -93.0859375 227.42578125 C-116.49485791 205.40228674 -129.9267575 171.12804104 -131.40625 139.4140625 C-132.25122391 106.92319088 -122.40246851 74.21921486 -101.0625 49.25 C-100.22203125 48.26 -99.3815625 47.27 -98.515625 46.25 C-77.77003494 22.45079868 -50.94076223 8.36205877 -20.0625 2.25 C-19.39387939 2.07936035 -18.72525879 1.9087207 -18.03637695 1.73291016 C-11.97385473 0.21677422 -6.23485632 -0.06126465 0 0 Z " fill="#FEFEFE" transform="translate(1337.0625,276.75)"/>
<path d="M0 0 C2.47992583 2.18771751 4.88239505 4.43432536 7.26953125 6.72265625 C8.089375 7.47933594 8.90921875 8.23601562 9.75390625 9.015625 C24.05902236 22.6321408 34.25629826 39.90442943 40.2421875 58.6328125 C41.02582842 60.98969452 41.87381113 63.26379732 42.78515625 65.5703125 C52.38138955 91.05682347 49.39886931 126.10192296 38.70703125 150.7265625 C37.99546875 152.20962891 37.99546875 152.20962891 37.26953125 153.72265625 C36.98207031 154.34253418 36.69460938 154.96241211 36.3984375 155.60107422 C23.12748196 184.13225197 2.78551916 206.10416742 -24.96630859 220.78564453 C-26.4567572 221.57727776 -27.93322645 222.39514705 -29.40625 223.21875 C-45.3301779 231.80964219 -64.14530757 235.29982707 -82.04296875 235.16015625 C-82.73134827 235.15678253 -83.41972778 235.15340881 -84.12896729 235.14993286 C-104.25080218 235.00839287 -123.42472608 232.43322698 -141.73046875 223.72265625 C-142.82029053 223.20977051 -142.82029053 223.20977051 -143.93212891 222.68652344 C-154.1364729 217.79829543 -163.10046979 212.02322978 -171.73046875 204.72265625 C-172.69726562 203.90796875 -173.6640625 203.09328125 -174.66015625 202.25390625 C-181.09774185 196.61878977 -186.56517724 190.53413799 -191.73046875 183.72265625 C-192.3234375 182.94535156 -192.91640625 182.16804688 -193.52734375 181.3671875 C-201.70297356 170.17257512 -208.39358135 157.89454104 -212.73046875 144.72265625 C-213.08753906 143.63855469 -213.44460938 142.55445313 -213.8125 141.4375 C-220.68223207 119.02725045 -222.32558445 95.59076676 -216.73046875 72.72265625 C-216.49070312 71.62566406 -216.2509375 70.52867188 -216.00390625 69.3984375 C-214.757007 63.93811498 -213.16350958 58.96147291 -210.74609375 53.91015625 C-209.7077084 51.67363396 -208.88171127 49.41563558 -208.04296875 47.09765625 C-195.03516777 14.45161876 -166.16634012 -9.35264621 -134.6652832 -22.95458984 C-127.85172752 -25.76679838 -120.94244329 -27.72411547 -113.73046875 -29.27734375 C-112.68375 -29.50292969 -111.63703125 -29.72851562 -110.55859375 -29.9609375 C-70.87492026 -36.97817245 -30.70520757 -25.60963664 0 0 Z " fill="#FEFEFE" transform="translate(1425.73046875,1485.27734375)"/>
</svg>
